<svg xmlns="http://www.w3.org/2000/svg" width="20.01" height="17.895" viewBox="0 0 20.01 17.895">
  <g id="Group_143" data-name="Group 143" transform="translate(-604 -392.189)">
    <path id="Path_234" data-name="Path 234" d="M608.42,406.73c-2.23-1.46-3.67-3.66-3.67-5.59,0-3.28,4.14-7.3,9.25-7.3a10.118,10.118,0,0,1,5.59,1.71" fill="none" stroke="#130f26" stroke-linecap="round" stroke-linejoin="round" stroke-width="1.5"/>
    <path id="Path_235" data-name="Path 235" d="M621.85,397.61a5.9,5.9,0,0,1,1.41,3.53c0,3.28-4.15,7.3-9.26,7.3a9.887,9.887,0,0,1-2.63-.36" fill="none" stroke="#130f26" stroke-linecap="round" stroke-linejoin="round" stroke-width="1.5"/>
    <path id="Path_236" data-name="Path 236" d="M611.766,403.367a3.12,3.12,0,0,1-.925-2.229,3.16,3.16,0,0,1,5.394-2.241" fill="none" stroke="#130f26" stroke-linecap="round" stroke-linejoin="round" stroke-width="1.5"/>
    <path id="Path_237" data-name="Path 237" d="M617.11,401.7a3.158,3.158,0,0,1-2.537,2.542" fill="none" stroke="#130f26" stroke-linecap="round" stroke-linejoin="round" stroke-width="1.5"/>
    <path id="Path_238" data-name="Path 238" d="M621.892,393.25l-15.774,15.774" fill="none" stroke="#130f26" stroke-linecap="round" stroke-linejoin="round" stroke-width="1.5"/>
  </g>
</svg>
