<svg xmlns="http://www.w3.org/2000/svg" width="92.705" height="102.553" viewBox="0 0 92.705 102.553">
	<g id="Group_130" data-name="Group 130" transform="translate(-0.858 -0.993)">
		<path id="Path_533" data-name="Path 533" fill="#fff" d="M7.605,103h4.758l3.315-12.6L19.032,103H23.79L30.5,83.5H25.584L21.489,97.7,17.862,83.5H13.494L9.867,97.7l-4.1-14.2H.858Z" />
		<path id="Path_534" data-name="Path 534" fill="#fff" d="M41.318,103.546a9.07,9.07,0,0,0,6.318-2.652V103h4.68V83.5h-4.68v2.106a9.07,9.07,0,0,0-6.318-2.652c-6.084,0-10.14,4.134-10.14,10.3S35.234,103.546,41.318,103.546Zm.468-4.134c-3.549,0-5.928-2.457-5.928-6.162s2.379-6.162,5.928-6.162c3.51,0,5.85,2.457,5.85,6.162S45.3,99.412,41.786,99.412Z" />
		<path id="Path_535" data-name="Path 535" fill="#fff" d="M55.914,103h4.68V76.246h-4.68Z" />
		<path id="Path_536" data-name="Path 536" fill="#fff" d="M64.94,103h4.68V76.246H64.94Z" />
		<path id="Path_537" data-name="Path 537" fill="#fff" d="M82.994,103.546A10.321,10.321,0,0,0,93.1,96.37H88.337a5.911,5.911,0,0,1-5.343,3.276,5.7,5.7,0,0,1-5.811-5.109h15.99l.39-.39v-.9c0-6.162-4.212-10.3-10.569-10.3s-10.569,4.134-10.569,10.3S76.637,103.546,82.994,103.546ZM77.5,90.637a5.888,5.888,0,0,1,11,0Z" />
		<path id="Path_538" data-name="Path 538" fill="#fff" fill-opacity="0.723" d="M45.764,61.706a2.375,2.375,0,0,1-1.093-.261l-10.93-5.658a25.683,25.683,0,0,1-7.422-5.512A25.026,25.026,0,0,1,19.827,33.66L19.7,13.517a5.5,5.5,0,0,1,3.727-5.2l20.073-7A5.722,5.722,0,0,1,47.232,1.3l20.146,6.76A5.49,5.49,0,0,1,71.172,13.2L71.3,33.359a25.022,25.022,0,0,1-6.271,16.679,25.594,25.594,0,0,1-7.349,5.6L46.847,61.423A2.317,2.317,0,0,1,45.764,61.706Z" />
		<path id="Path_539" data-name="Path 539" fill="#fff" d="M45.7,61.706a1.78,1.78,0,0,1-.82-.2l-8.2-4.246a19.27,19.27,0,0,1-5.569-4.136,18.779,18.779,0,0,1-4.872-12.468l-.1-15.115a4.129,4.129,0,0,1,2.8-3.9L44,16.391a4.3,4.3,0,0,1,2.8-.016l15.117,5.072a4.12,4.12,0,0,1,2.847,3.861l.1,15.126A18.776,18.776,0,0,1,60.157,52.95a19.206,19.206,0,0,1-5.517,4.2l-8.129,4.341A1.735,1.735,0,0,1,45.7,61.706Z" />
	</g>
</svg>
