<svg xmlns="http://www.w3.org/2000/svg" width="92.705" height="102.553" viewBox="0 0 92.705 102.553">
	<g id="Group_131" data-name="Group 131" transform="translate(-0.858 0.007)">
		<path id="Path_540" data-name="Path 540" fill="#1d202e" d="M7.605,102h4.758l3.315-12.6L19.032,102H23.79L30.5,82.5H25.584L21.489,96.7,17.862,82.5H13.494L9.867,96.7,5.772,82.5H.858Zm33.713.546a9.07,9.07,0,0,0,6.318-2.652V102h4.68V82.5h-4.68v2.106a9.07,9.07,0,0,0-6.318-2.652c-6.084,0-10.14,4.134-10.14,10.3S35.234,102.546,41.318,102.546Zm.468-4.134c-3.549,0-5.928-2.457-5.928-6.162s2.379-6.162,5.928-6.162c3.51,0,5.85,2.457,5.85,6.162S45.3,98.412,41.786,98.412ZM55.914,102h4.68V75.246h-4.68Zm9.026,0h4.68V75.246H64.94Zm18.054.546A10.321,10.321,0,0,0,93.1,95.37H88.337a5.911,5.911,0,0,1-5.343,3.276,5.7,5.7,0,0,1-5.811-5.109h15.99l.39-.39v-.9c0-6.162-4.212-10.3-10.569-10.3s-10.569,4.134-10.569,10.3S76.637,102.546,82.994,102.546ZM77.5,89.637a5.888,5.888,0,0,1,11,0Z" />
		<path id="Path_541" data-name="Path 541" fill="#08d67f" fill-opacity="0.72" d="M45.764,60.706a2.374,2.374,0,0,1-1.093-.261l-10.93-5.658a25.681,25.681,0,0,1-7.422-5.512A25.026,25.026,0,0,1,19.827,32.66L19.7,12.517a5.5,5.5,0,0,1,3.727-5.2L43.5.317A5.722,5.722,0,0,1,47.232.3l20.146,6.76A5.49,5.49,0,0,1,71.172,12.2L71.3,32.359a25.023,25.023,0,0,1-6.271,16.679,25.6,25.6,0,0,1-7.349,5.6L46.847,60.423a2.317,2.317,0,0,1-1.083.283Z" />
		<path id="Path_542" data-name="Path 542" fill="#08d67f" d="M45.7,60.706a1.78,1.78,0,0,1-.82-.2l-8.2-4.246a19.27,19.27,0,0,1-5.569-4.136,18.78,18.78,0,0,1-4.872-12.468l-.1-15.115a4.129,4.129,0,0,1,2.8-3.9L44,15.391a4.3,4.3,0,0,1,2.8-.016l15.117,5.072a4.119,4.119,0,0,1,2.847,3.861l.1,15.126A18.776,18.776,0,0,1,60.157,51.95a19.206,19.206,0,0,1-5.517,4.2l-8.129,4.341a1.736,1.736,0,0,1-.813.212Z" />
	</g>
</svg>
