<svg xmlns="http://www.w3.org/2000/svg" width="22" height="19" viewBox="0 0 22 19">
  <g id="Group_105" data-name="Group 105" transform="translate(-96.5 -280)">
    <path id="Path_492" data-name="Path 492" d="M105.189,280.747a.754.754,0,0,0-.761-.747H102.8a3.946,3.946,0,0,0-3.974,3.9v1.859a.762.762,0,0,0,1.523,0V283.9a2.436,2.436,0,0,1,2.452-2.409h1.629A.753.753,0,0,0,105.189,280.747Zm8-.747H111.6a.747.747,0,1,0,0,1.493h1.593a2.44,2.44,0,0,1,2.461,2.413v1.856a.761.761,0,0,0,1.522,0v-1.856A3.949,3.949,0,0,0,113.194,280Zm-7.955,3.743h5.524a2.26,2.26,0,0,1,2.27,2.266v1.245a.28.28,0,0,1-.273.269h-9.52a.278.278,0,0,1-.27-.269v-1.245A2.268,2.268,0,0,1,105.239,283.743Z" fill="#fff" fill-rule="evenodd" opacity="0.4"/>
    <path id="Path_493" data-name="Path 493" d="M118.239,289.041H97.762a.747.747,0,1,0,0,1.493h1.061V294.1A3.946,3.946,0,0,0,102.8,298h1.629a.747.747,0,1,0,0-1.493H102.8a2.437,2.437,0,0,1-2.454-2.409v-3.563h2.623v.991a2.268,2.268,0,0,0,2.269,2.266h5.524a2.269,2.269,0,0,0,2.27-2.266v-.991h2.623v3.559a2.44,2.44,0,0,1-2.461,2.414H111.6a.747.747,0,1,0,0,1.493h1.593a3.949,3.949,0,0,0,3.983-3.907v-3.559h1.062a.747.747,0,1,0,0-1.493Z" transform="translate(-0.5 1)" fill="#fff"/>
  </g>
</svg>
