<svg xmlns="http://www.w3.org/2000/svg" width="20.437" height="22.288" viewBox="0 0 20.437 22.288">
  <g id="Group_109" data-name="Group 109" transform="translate(0.918 0.75)">
    <path id="Path_296" data-name="Path 296" d="M278,342.5a2.5,2.5,0,1,1-2.5,2.5A2.5,2.5,0,0,1,278,342.5Z" transform="translate(-268.7 -334.606)" fill="none" stroke="#adafbb" stroke-linecap="round" stroke-linejoin="round" stroke-width="1.5" fill-rule="evenodd"/>
    <path id="Path_297" data-name="Path 297" d="M287.737,340.7h0a2.7,2.7,0,0,0-3.7-1,1.69,1.69,0,0,1-2.533-1.474A2.717,2.717,0,0,0,278.8,335.5h0a2.718,2.718,0,0,0-2.708,2.727,1.688,1.688,0,0,1-2.531,1.474,2.7,2.7,0,0,0-3.7,1,2.736,2.736,0,0,0,.991,3.724,1.708,1.708,0,0,1,0,2.945,2.737,2.737,0,0,0-.991,3.724,2.7,2.7,0,0,0,3.7,1h0a1.687,1.687,0,0,1,2.531,1.473h0a2.718,2.718,0,0,0,2.708,2.727h0a2.717,2.717,0,0,0,2.707-2.727h0a1.689,1.689,0,0,1,2.533-1.473,2.7,2.7,0,0,0,3.7-1,2.736,2.736,0,0,0-.99-3.724h0a1.707,1.707,0,0,1,0-2.945A2.736,2.736,0,0,0,287.737,340.7Z" transform="translate(-269.5 -335.5)" fill="none" stroke="#adafbb" stroke-linecap="round" stroke-linejoin="round" stroke-width="1.5" fill-rule="evenodd"/>
  </g>
</svg>
